<svg width="13" height="11" viewBox="0 0 13 11" fill="none" xmlns="http://www.w3.org/2000/svg">
<path d="M4.719 10.156C3.94767 10.156 3.27167 9.948 2.691 9.532C2.119 9.10733 1.67267 8.52233 1.352 7.777C1.03133 7.023 0.871 6.14767 0.871 5.151C0.871 4.15433 1.03133 3.28333 1.352 2.538C1.67267 1.784 2.119 1.199 2.691 0.782999C3.263 0.367 3.93467 0.159 4.706 0.159C5.47733 0.159 6.149 0.367 6.721 0.782999C7.293 1.199 7.73933 1.784 8.06 2.538C8.38933 3.28333 8.554 4.15433 8.554 5.151C8.554 6.14767 8.39367 7.023 8.073 7.777C7.75233 8.531 7.30167 9.116 6.721 9.532C6.149 9.948 5.48167 10.156 4.719 10.156ZM4.719 8.973C5.239 8.973 5.68967 8.817 6.071 8.505C6.45233 8.18433 6.747 7.738 6.955 7.166C7.17167 6.594 7.28 5.92233 7.28 5.151C7.28 4.37967 7.17167 3.708 6.955 3.136C6.747 2.564 6.448 2.122 6.058 1.81C5.67667 1.498 5.226 1.342 4.706 1.342C4.186 1.342 3.73533 1.498 3.354 1.81C2.97267 2.122 2.67367 2.564 2.457 3.136C2.249 3.708 2.145 4.37967 2.145 5.151C2.145 5.91367 2.249 6.581 2.457 7.153C2.67367 7.725 2.97267 8.17133 3.354 8.492C3.744 8.81267 4.199 8.973 4.719 8.973ZM11.7212 10V1.42H9.88823V0.314999H13.0082V10H11.7212Z" fill="black"/>
</svg>
